# xmcd
#
# Track frame offsets: 
#        150
#        17357
#        31362
#        44627
#        60142
#        74537
#        86047
#        97367
#        110457
#        127475
#        141890
#        153505
#        167427
#        180902
#        193062
#        204885
#        212867
#        227382
#        242785
#        255837
#        268630
#        277255
#        285775
#        299957
#        312722
#
# Disc length: 4378 seconds
#
# Revision: 0
# Processed by: cddbd v1.5.2PL0 Copyright (c) Steve Scherf et al.
# Submitted via: ExactAudioCopy v0.99pb3
#
DISCID=7a111819
DTITLE=nat king cole - unforgetable
DYEAR=2000
DGENRE=Oldies
TTITLE0=the very thought of you
TTITLE1=it's only a paper moon
TTITLE2=route 66
TTITLE3=mona lisa
TTITLE4=unforgetable
TTITLE5=l-o-v-e
TTITLE6=this can't be love
TTITLE7=smile
TTITLE8=lush life
TTITLE9=that sunday. that summer
TTITLE10=orange colored sky
TTITLE11=sentamental reasons
TTITLE12=tendery
TTITLE13=autumn leaves
TTITLE14=straighten up and fly right
TTITLE15=avalon
TTITLE16=don't get around much anymore
TTITLE17=too young
TTITLE18=nature boy
TTITLE19=darling
TTITLE20=almost like being in love
TTITLE21=thou swell
TTITLE22=non-dimenticar
TTITLE23=our love is here to stay
TTITLE24=unforgetable (with natalie)
EXTD=
EXTT0=
EXTT1=
EXTT2=
EXTT3=
EXTT4=
EXTT5=
EXTT6=
EXTT7=
EXTT8=
EXTT9=
EXTT10=
EXTT11=
EXTT12=
EXTT13=
EXTT14=
EXTT15=
EXTT16=
EXTT17=
EXTT18=
EXTT19=
EXTT20=
EXTT21=
EXTT22=
EXTT23=
EXTT24=
PLAYORDER=
